<svg width="208" height="108" viewBox="0 0 208 108" fill="none" xmlns="http://www.w3.org/2000/svg">
<g filter="url(#filter0_d_116_268)">
<path d="M0 80H100V100H0V80Z" fill="url(#paint0_linear_116_268)"/>
<rect y="40" width="50" height="20" fill="url(#paint1_linear_116_268)"/>
<path d="M0 0H118.864L98.854 20H0V0Z" fill="url(#paint2_linear_116_268)"/>
<path d="M98.8549 20L118.864 0H200L182.122 19.089L182.122 76.763L158.78 100H99.9999V57.2634L119.271 80H150.5L163 67.5L163.193 20H98.8549Z" fill="url(#paint3_linear_116_268)"/>
</g>
<defs>
<filter id="filter0_d_116_268" x="0" y="0" width="208" height="108" filterUnits="userSpaceOnUse" color-interpolation-filters="sRGB">
<feFlood flood-opacity="0" result="BackgroundImageFix"/>
<feColorMatrix in="SourceAlpha" type="matrix" values="0 0 0 0 0 0 0 0 0 0 0 0 0 0 0 0 0 0 127 0" result="hardAlpha"/>
<feOffset dx="4" dy="4"/>
<feGaussianBlur stdDeviation="2"/>
<feComposite in2="hardAlpha" operator="out"/>
<feColorMatrix type="matrix" values="0 0 0 0 0 0 0 0 0 0 0 0 0 0 0 0 0 0 0.25 0"/>
<feBlend mode="normal" in2="BackgroundImageFix" result="effect1_dropShadow_116_268"/>
<feBlend mode="normal" in="SourceGraphic" in2="effect1_dropShadow_116_268" result="shape"/>
</filter>
<linearGradient id="paint0_linear_116_268" x1="100" y1="100" x2="-8.64257e-07" y2="100" gradientUnits="userSpaceOnUse">
<stop/>
<stop offset="1" stop-color="#E00000"/>
</linearGradient>
<linearGradient id="paint1_linear_116_268" x1="98.5" y1="60" x2="-7.56404e-07" y2="60" gradientUnits="userSpaceOnUse">
<stop/>
<stop offset="1" stop-color="#E00000"/>
</linearGradient>
<linearGradient id="paint2_linear_116_268" x1="98.5" y1="20" x2="-2.40732e-06" y2="20" gradientUnits="userSpaceOnUse">
<stop/>
<stop offset="1" stop-color="#E00000"/>
</linearGradient>
<linearGradient id="paint3_linear_116_268" x1="136.5" y1="100" x2="200" y2="100" gradientUnits="userSpaceOnUse">
<stop/>
<stop offset="1" stop-color="#03009C"/>
</linearGradient>
</defs>
</svg>
